<svg height="511pt" viewBox="0 0 511.9999 511" width="511pt" xmlns="http://www.w3.org/2000/svg"><path d="m493.617188 309.917969c11.300781-10.582031 18.382812-25.617188 18.382812-42.285157 0-16.628906-7.050781-31.632812-18.308594-42.210937 10.664063-5.863281 17.90625-17.203125 17.90625-30.207031 0-107.367188-87.347656-194.714844-194.714844-194.714844h-122.136718c-107.367188 0-194.714844 87.347656-194.714844 194.714844 0 13.210937 7.480469 24.703125 18.425781 30.480468-11.089843 10.5625-18.023437 25.453126-18.023437 41.941407 0 16.613281 7.042968 31.609375 18.285156 42.1875-10.957031 5.945312-18.417969 17.550781-18.417969 30.871093 0 7.296876 2.242188 14.082032 6.070313 19.703126-.097656.152343-.199219.296874-.289063.457031-8.351562 14.667969-7 28.683593-2.523437 39.625-2.304688 4.738281-3.5234378 9.925781-3.5234378 15.300781v39.199219c0 31.476562 25.6054688 57.085937 57.0859378 57.085937h397.390625c31.476562 0 57.085937-25.609375 57.085937-57.085937v-39.199219c0-5.375-1.21875-10.5625-3.519531-15.300781 4.472656-10.941407 5.820313-24.957031-2.527344-39.625-.011719-.023438-.023437-.039063-.035156-.058594 3.996094-5.699219 6.351563-12.628906 6.351563-20.105469 0-13.246094-7.382813-24.804687-18.25-30.773437zm-12.0625 94.617187c-8.945313 6.171875-20.964844 6.148438-29.941407-.074218-15.808593-10.882813-37.050781-10.882813-52.859375.003906-.027344.015625-.054687.035156-.078125.054687-9.023437 6.167969-21.121093 6.152344-30.128906-.046875-.824219-.566406-1.660156-1.097656-2.511719-1.601562l42.804688-27.082032h67.933594c4.488281 0 8.777343-.855468 12.722656-2.398437 7.511718 17.164063-7.820313 31.054687-7.941406 31.144531zm-459.339844-31.324218c4.070312 1.65625 8.519531 2.578124 13.183594 2.578124h185.933593l90.679688 30.789063c-8.449219 3.992187-18.621094 3.300781-26.464844-2.082031-.023437-.015625-.046875-.03125-.070313-.046875-8.65625-5.960938-19.160156-8.816407-29.660156-8.089844-10.503906-.726563-21.003906 2.128906-29.664062 8.089844-.011719.007812-.023438.015625-.039063.027343-9.023437 6.207032-21.140625 6.207032-30.164062-.003906-15.8125-10.886718-37.054688-10.886718-52.863281 0-9.007813 6.199219-21.101563 6.214844-30.125.050782-.027344-.023438-.054688-.039063-.082032-.058594-15.808594-10.886719-37.050781-10.886719-52.890625.015625-8.945312 6.207031-20.96875 6.226562-29.859375.09375-.171875-.128907-15.617187-14.113281-7.914062-31.363281zm462.433594-45.390626c4.332031 2.660157 7.238281 7.429688 7.238281 12.875 0 8.332032-6.78125 15.109376-15.113281 15.109376h-36.351563zm-33.835938-2.234374-110.074219 69.644531-205.101562-69.644531zm-416.328125-115.902344c-7.976563 0-14.46875-6.492188-14.46875-14.46875 0-96.347656 78.382813-174.730469 174.730469-174.730469h122.136718c96.347657 0 174.730469 78.382813 174.730469 174.730469 0 7.980468-6.488281 14.46875-14.46875 14.46875h-180.914062c-5.519531 0-9.992188 4.472656-9.992188 9.992187s4.472657 9.992188 9.992188 9.992188h157.820312c20.933594 0 37.964844 17.03125 37.964844 37.964843 0 20.910157-16.988281 37.925782-37.890625 37.96875h-395.816406c-20.902344-.042968-37.890625-17.058593-37.890625-37.96875 0-20.933593 17.03125-37.964843 37.96875-37.964843h157.015625c5.515625 0 9.988281-4.472657 9.988281-9.992188s-4.472656-9.992187-9.988281-9.992187zm23.902344 115.902344h15.101562l88.996094 30.21875h-127.089844c-8.332031 0-15.109375-6.777344-15.109375-15.109376 0-8.332031 6.777344-15.113281 15.109375-15.113281h22.914063c.027344 0 .050781.003907.078125.003907zm396.125 166.496093h-397.390625c-20.460938 0-37.105469-16.644531-37.105469-37.101562v-33.144531c7.566406 4.851562 16.269531 7.277343 24.976563 7.277343 9.242187 0 18.484374-2.730469 26.355468-8.191406 9.007813-6.203125 21.105469-6.21875 30.128906-.050781.023438.019531.050782.039062.078126.058594 15.808593 10.886718 37.050781 10.886718 52.863281 0 9.03125-6.21875 21.167969-6.21875 30.195312 0 15.820313 10.890624 37.066407 10.882812 52.875-.023438.011719-.007812.019531-.015625.03125-.023438 5.011719-3.4375 11.113281-5.066406 17.195313-4.566406.359375.039063.722656.058594 1.085937.058594.355469 0 .738281-.019531 1.101563-.058594 6.085937-.492187 12.175781 1.121094 17.183594 4.550782.019531.011718.039062.027343.058593.039062 15.808594 10.90625 37.054688 10.914062 52.871094.023438 9.03125-6.21875 21.167969-6.21875 30.199219 0 15.8125 10.886718 37.054687 10.882812 52.863281 0 .027344-.019532.054687-.039063.082031-.058594 9.019532-6.164063 21.117188-6.148438 30.09375.03125 15.320313 10.621094 35.761719 10.9375 51.363282.933594v33.144531c-.003907 20.457031-16.648438 37.101562-37.105469 37.101562zm0 0"/><path d="m259.328125 209.683594h-.324219c-5.519531 0-9.992187 4.472656-9.992187 9.992187s4.472656 9.992188 9.992187 9.992188h.324219c5.519531 0 9.992187-4.472657 9.992187-9.992188s-4.472656-9.992187-9.992187-9.992187zm0 0"/><path d="m154.183594 61.519531-14.152344 14.15625c-3.902344 3.898438-3.902344 10.226563 0 14.128907 1.949219 1.953124 4.507812 2.925781 7.0625 2.925781 2.558594 0 5.117188-.972657 7.066406-2.925781l14.152344-14.152344c3.902344-3.902344 3.902344-10.230469 0-14.132813-3.902344-3.902343-10.226562-3.902343-14.128906 0zm0 0"/><path d="m256.097656 89.804688c1.949219 1.949218 4.507813 2.925781 7.0625 2.925781 2.558594 0 5.117188-.976563 7.066406-2.925781 3.902344-3.902344 3.902344-10.230469 0-14.132813l-14.152343-14.152344c-3.902344-3.898437-10.230469-3.898437-14.132813 0-3.902344 3.902344-3.902344 10.230469 0 14.132813zm0 0"/><path d="m350.921875 92.730469c2.558594 0 5.113281-.976563 7.066406-2.925781l14.152344-14.152344c3.902344-3.902344 3.902344-10.230469 0-14.132813-3.902344-3.902343-10.230469-3.902343-14.132813 0l-14.152343 14.152344c-3.902344 3.902344-3.902344 10.230469 0 14.132813 1.953125 1.949218 4.507812 2.925781 7.066406 2.925781zm0 0"/><path d="m302.203125 150.890625c1.953125 1.949219 4.507813 2.925781 7.066406 2.925781 2.554688 0 5.113281-.976562 7.066407-2.925781 3.898437-3.902344 3.902343-10.230469 0-14.132813l-14.15625-14.152343c-3.898438-3.902344-10.226563-3.902344-14.128907 0-3.902343 3.902343-3.902343 10.226562 0 14.128906zm0 0"/><path d="m214.421875 122.605469c-3.902344-3.902344-10.230469-3.902344-14.132813 0l-14.152343 14.152343c-3.902344 3.902344-3.902344 10.230469 0 14.132813 1.953125 1.949219 4.507812 2.925781 7.066406 2.925781 2.554687 0 5.113281-.976562 7.066406-2.925781l14.152344-14.15625c3.902344-3.902344 3.902344-10.226563 0-14.128906zm0 0"/><path d="m397.03125 153.816406c2.554688 0 5.113281-.976562 7.0625-2.925781l14.152344-14.15625c3.902344-3.902344 3.902344-10.226563 0-14.128906-3.898438-3.902344-10.226563-3.902344-14.128906 0l-14.152344 14.152343c-3.902344 3.902344-3.902344 10.230469 0 14.132813 1.949218 1.949219 4.507812 2.925781 7.066406 2.925781zm0 0"/><path d="m98.355469 122.605469c-3.902344-3.902344-10.230469-3.902344-14.132813 0-3.898437 3.902343-3.902344 10.230469 0 14.128906l14.15625 14.15625c1.949219 1.949219 4.507813 2.925781 7.0625 2.925781 2.558594 0 5.117188-.976562 7.066406-2.925781 3.902344-3.902344 3.902344-10.230469 0-14.128906zm0 0"/></svg>